<svg width="18" height="30" viewBox="0 0 18 30" fill="none" xmlns="http://www.w3.org/2000/svg">
<path d="M10.9922 29.9414H6.18796C5.3855 29.9414 4.73273 29.2886 4.73273 28.4862V17.65H1.92984C1.12738 17.65 0.474609 16.997 0.474609 16.1948V11.5514C0.474609 10.749 1.12738 10.0962 1.92984 10.0962H4.73273V7.771C4.73273 5.46547 5.45668 3.50395 6.82608 2.09885C8.20166 0.687332 10.124 -0.0585938 12.3854 -0.0585938L16.0493 -0.0526429C16.8504 -0.0512695 17.502 0.601502 17.502 1.40259V5.71381C17.502 6.51627 16.8495 7.16904 16.0473 7.16904L13.5804 7.16995C12.8281 7.16995 12.6365 7.32079 12.5955 7.36702C12.528 7.4437 12.4476 7.66045 12.4476 8.25897V10.096H15.8619C16.1189 10.096 16.3679 10.1594 16.5819 10.2789C17.0436 10.5368 17.3306 11.0246 17.3306 11.5517L17.3288 16.195C17.3288 16.997 16.676 17.6498 15.8736 17.6498H12.4476V28.4862C12.4476 29.2886 11.7946 29.9414 10.9922 29.9414ZM6.49146 28.1827H10.6887V16.8626C10.6887 16.3268 11.1247 15.891 11.6603 15.891H15.5701L15.5717 11.8549H11.6601C11.1245 11.8549 10.6887 11.4191 10.6887 10.8833V8.25897C10.6887 7.57187 10.7585 6.79047 11.2771 6.20316C11.9038 5.49316 12.8915 5.41122 13.5799 5.41122L15.7433 5.41031V1.70563L12.384 1.70013C8.74983 1.70013 6.49146 4.02649 6.49146 7.771V10.8833C6.49146 11.4189 6.05566 11.8549 5.52008 11.8549H2.23334V15.891H5.52008C6.05566 15.891 6.49146 16.3268 6.49146 16.8626V28.1827ZM16.0459 1.70609H16.0461H16.0459Z" fill="#94C31F"/>
</svg>
