<svg width="30" height="26" viewBox="0 0 30 26" fill="none" xmlns="http://www.w3.org/2000/svg">
<path d="M0.591027 22.4937C3.36853 24.2562 6.60103 25.1875 9.93853 25.1875C14.826 25.1875 19.3048 23.31 22.551 19.9012C25.6573 16.6387 27.366 12.255 27.281 7.80624C28.4585 6.79874 29.8435 4.87499 29.8435 2.99999C29.8435 2.28124 29.0635 1.82499 28.431 2.19124C27.3248 2.84124 26.316 3.01124 25.2785 2.71999C23.1598 0.654987 20.006 0.219987 17.3485 1.65249C15.026 2.90249 13.7348 5.18999 13.851 7.68999C9.92728 7.21124 6.30228 5.24374 3.77478 2.18624C3.35978 1.68749 2.57228 1.74624 2.24228 2.31124C1.02478 4.39624 1.03728 6.81249 2.09603 8.76374C1.59228 8.85249 1.28103 9.27624 1.28103 9.73499C1.28103 11.6962 2.16353 13.4987 3.58478 14.7287C3.31978 14.9837 3.23228 15.3625 3.34478 15.7C3.96978 17.5775 5.38478 19.045 7.15353 19.78C5.22978 20.6987 3.10228 21.005 1.20853 20.7725C0.228527 20.64 -0.255223 21.9575 0.591027 22.4937ZM10.1948 20.1012C10.896 19.5625 10.5235 18.44 9.64353 18.4212C8.09353 18.3887 6.68228 17.625 5.80353 16.4237C6.22728 16.3962 6.66603 16.3312 7.08353 16.2187C8.03478 15.9612 7.98978 14.5887 7.02353 14.395C5.26978 14.0425 3.89353 12.765 3.37728 11.12C3.84853 11.2362 4.32853 11.3012 4.80728 11.31C5.75603 11.315 6.11478 10.0987 5.34103 9.58999C3.59728 8.44124 2.85353 6.41249 3.34603 4.50499C6.39103 7.58999 10.5223 9.44874 14.8923 9.65874C15.5185 9.69749 15.9885 9.10874 15.851 8.51249C15.2573 5.93874 16.6948 4.13499 18.2385 3.30374C19.766 2.47874 22.2185 2.22124 24.0985 4.19374C24.6573 4.78249 26.5423 4.80499 27.501 4.58124C27.071 5.39124 26.4098 6.15999 25.791 6.59249C25.5273 6.77749 25.376 7.08499 25.3923 7.40624C25.5935 11.5125 24.0635 15.595 21.1948 18.6062C18.3048 21.64 14.3085 23.3112 9.93978 23.3112C8.20228 23.3112 6.49853 23.0287 4.88853 22.4837C6.81353 22.1112 8.64228 21.2962 10.1948 20.1012Z" fill="#94C31F"/>
</svg>
